<?xml version="1.0" standalone="no"?>
<!DOCTYPE svg PUBLIC "-//W3C//DTD SVG 20010904//EN"
 "http://www.w3.org/TR/2001/REC-SVG-20010904/DTD/svg10.dtd">
<svg version="1.0" xmlns="http://www.w3.org/2000/svg"
 width="300.000000pt" height="306.000000pt" viewBox="0 0 300.000000 306.000000"
 preserveAspectRatio="xMidYMid meet">
<metadata>
Created by potrace 1.10, written by Peter Selinger 2001-2011
</metadata>
<g transform="translate(0.000000,306.000000) scale(0.100000,-0.100000)"
fill="#000000" stroke="none">
<path d="M2091 2992 c63 -38 145 -87 183 -111 37 -23 66 -37 64 -30 -2 7 -26
24 -53 38 -27 14 -55 32 -63 39 -8 7 -28 20 -45 29 -18 8 -60 35 -95 59 -35
24 -73 44 -84 44 -13 0 25 -28 93 -68z"/>
<path d="M2425 3048 c42 -23 511 -312 537 -329 35 -25 38 -24 38 15 0 33 -3
36 -217 168 -241 149 -263 162 -270 155 -2 -3 25 -26 61 -52 36 -26 66 -48 66
-51 0 -4 -66 34 -137 79 -24 15 -55 27 -70 27 -26 -1 -27 -1 -8 -12z m247
-101 c7 -7 30 -23 51 -36 21 -13 36 -25 34 -28 -6 -6 -107 58 -107 68 0 12 6
11 22 -4z"/>
<path d="M2595 3046 c11 -7 92 -57 180 -111 88 -54 170 -105 183 -113 12 -8
22 -12 22 -9 0 3 -30 24 -67 48 -38 23 -69 46 -71 51 -2 4 -7 8 -12 8 -5 0
-60 32 -124 70 -63 39 -118 70 -123 70 -4 0 1 -6 12 -14z"/>
<path d="M2801 3056 c17 -16 199 -124 199 -118 0 5 -36 30 -80 56 -44 27 -80
53 -80 57 0 5 -10 9 -22 9 -12 0 -19 -2 -17 -4z"/>
<path d="M2374 2968 c78 -53 176 -111 176 -104 0 6 -118 80 -160 100 -19 9
-27 11 -16 4z"/>
<path d="M2350 2849 c0 -8 30 -33 68 -55 37 -23 183 -111 325 -197 141 -86
257 -151 257 -144 0 7 -17 23 -37 34 -90 49 -138 77 -143 83 -3 4 -20 13 -37
21 -18 8 -33 17 -33 21 0 5 -5 8 -11 8 -6 0 -30 14 -54 30 -24 17 -46 30 -49
30 -8 0 -248 150 -268 168 -15 13 -18 13 -18 1z"/>
<path d="M1604 2511 c-18 -11 -35 -25 -40 -33 -4 -7 2 -4 14 6 46 40 183 30
285 -21 38 -19 53 -34 68 -69 18 -40 20 -64 17 -277 -2 -229 -2 -233 24 -312
56 -167 65 -281 33 -440 -8 -38 -17 -101 -20 -140 -8 -85 -48 -208 -81 -252
-13 -18 -63 -69 -110 -115 -47 -46 -95 -96 -107 -112 -18 -25 -13 -23 35 15
31 24 61 54 67 67 6 12 18 25 27 29 16 6 42 30 94 90 30 32 80 161 80 202 0
15 3 30 6 34 4 3 8 32 11 64 4 61 7 82 19 123 4 14 9 81 11 150 4 121 3 129
-34 250 l-37 125 2 230 c4 291 -2 310 -113 357 -120 51 -200 60 -251 29z"/>
<path d="M0 2403 c0 -48 2 -50 227 -328 266 -329 682 -842 758 -935 531 -652
598 -731 606 -719 5 8 9 9 9 3 0 -5 -5 -15 -10 -20 -9 -9 -90 -365 -90 -395 0
-6 10 -9 22 -7 21 3 26 17 60 182 20 99 40 193 45 209 7 26 4 35 -25 66 -43
46 -93 117 -87 123 3 3 -14 23 -37 45 -66 63 -70 70 -58 93 12 22 1 27 -18 8
-7 -7 -15 -8 -20 -2 -29 32 -238 293 -651 809 -259 325 -480 595 -491 601 -11
6 -17 13 -14 16 3 3 -47 72 -110 152 l-116 147 0 -48z"/>
<path d="M1582 2413 c2 -26 8 -38 18 -38 19 0 25 41 10 61 -21 24 -31 16 -28
-23z"/>
<path d="M1857 2382 c-13 -14 -16 -28 -11 -47 6 -25 8 -26 19 -12 7 10 17 17
24 17 15 0 14 22 -2 44 -12 16 -14 16 -30 -2z"/>
<path d="M1678 2373 c-8 -10 -21 -28 -27 -40 -6 -12 -17 -20 -25 -17 -7 3 -19
-2 -26 -11 -11 -13 -9 -15 11 -13 22 3 24 -1 22 -32 -1 -19 1 -27 3 -17 3 9
10 17 15 17 5 0 9 11 9 25 0 14 5 25 10 25 6 0 10 -4 10 -10 0 -5 5 -10 10
-10 6 0 3 11 -6 25 -15 23 -11 51 6 40 5 -3 11 -1 15 5 4 6 11 7 17 4 6 -4 9
-1 6 7 -7 21 -32 22 -50 2z"/>
<path d="M1468 2213 c-31 -71 -42 -81 -146 -132 -93 -47 -144 -89 -210 -176
-26 -33 -52 -66 -59 -73 -7 -8 -25 -30 -40 -50 -15 -21 -40 -52 -55 -70 -15
-18 -35 -47 -43 -65 -8 -17 -10 -23 -3 -13 7 10 49 64 93 118 44 55 97 121
117 147 56 73 121 125 211 170 109 54 113 58 143 131 32 79 25 90 -8 13z"/>
<path d="M1775 2260 c17 -5 42 -24 58 -42 15 -18 27 -27 27 -21 0 6 -12 25
-26 42 -19 23 -34 31 -57 30 l-32 -1 30 -8z"/>
<path d="M1640 2206 c0 -8 9 -18 20 -21 11 -3 20 -10 20 -15 0 -5 8 -11 19
-15 10 -3 29 -14 41 -25 42 -36 35 -10 -9 34 -25 25 -50 42 -57 39 -8 -3 -14
0 -14 6 0 6 -4 11 -10 11 -5 0 -10 -6 -10 -14z"/>
<path d="M0 2185 c0 -9 28 -52 63 -94 35 -42 94 -114 132 -161 38 -47 74 -90
80 -96 5 -6 33 -37 60 -69 28 -32 67 -77 87 -99 21 -23 57 -68 80 -100 24 -33
59 -78 79 -100 20 -23 60 -73 90 -111 59 -77 139 -176 239 -296 36 -43 99
-119 140 -169 116 -142 308 -371 349 -415 57 -64 77 -89 65 -82 -7 4 -14 0
-17 -8 -6 -13 9 -12 35 2 4 2 -68 95 -159 206 -92 111 -304 369 -471 572 -168
204 -366 444 -441 535 -75 91 -198 241 -273 334 -76 92 -138 160 -138 151z"/>
<path d="M0 2052 c0 -11 6 -25 13 -29 19 -12 276 -322 277 -334 0 -3 -6 -13
-13 -23 -13 -17 -25 -6 -142 133 -70 83 -130 149 -133 147 -8 -9 28 -56 151
-199 65 -76 116 -141 113 -145 -4 -3 -13 4 -22 16 -8 12 -18 22 -23 22 -4 0
-17 -30 -29 -67 -12 -38 -57 -164 -100 -281 -79 -212 -79 -214 -65 -255 13
-37 12 -46 -6 -97 -12 -32 -21 -72 -21 -91 1 -27 7 -16 32 56 17 50 89 247
158 440 l127 349 -150 181 c-83 99 -154 184 -159 190 -4 5 -8 0 -8 -13z"/>
<path d="M357 1662 c10 -17 19 -29 22 -27 5 6 63 -68 86 -111 18 -34 18 -38 3
-82 l-17 -45 112 -131 c61 -72 143 -167 182 -212 38 -45 102 -118 140 -164 39
-46 88 -104 110 -129 22 -26 69 -82 105 -126 35 -44 103 -125 151 -181 l87
-101 -13 -79 c-7 -43 -23 -121 -34 -173 -12 -51 -19 -96 -17 -99 8 -7 11 6 50
183 20 88 40 161 46 163 5 2 10 8 10 13 0 4 -6 7 -12 4 -7 -2 -49 40 -93 93
-44 53 -134 159 -200 235 -189 219 -315 379 -308 390 3 5 1 7 -5 4 -12 -8 -65
51 -56 64 3 5 0 8 -8 7 -7 -2 -12 3 -10 10 1 8 -2 11 -8 7 -5 -3 -12 0 -14 7
-2 7 -7 22 -12 33 -4 11 -6 24 -5 28 1 5 -3 6 -9 2 -8 -5 -7 -12 1 -23 7 -10
0 -5 -15 9 -15 14 -28 32 -29 40 -4 22 -18 40 -27 34 -9 -6 -31 18 -34 37 -2
16 -36 66 -36 54 0 -5 8 -19 17 -30 l17 -21 -22 21 c-15 13 -20 26 -16 37 10
26 18 21 70 -40 27 -32 59 -69 70 -83 42 -48 99 -118 129 -156 17 -20 50 -60
74 -88 25 -28 90 -105 145 -171 55 -66 104 -125 110 -131 6 -7 22 -26 36 -44
14 -18 37 -47 52 -64 233 -273 208 -241 208 -264 0 -10 -5 -23 -11 -29 -9 -9
-78 -289 -79 -320 0 -24 30 -13 41 13 5 15 26 100 45 190 l36 162 -116 135
c-282 328 -806 962 -806 976 0 28 -75 136 -118 170 l-42 33 17 -30z"/>
<path d="M346 1580 c-9 -22 -16 -48 -15 -58 0 -9 9 7 20 37 22 64 19 80 -5 21z"/>
<path d="M286 900 c-87 -259 -157 -473 -154 -475 8 -8 34 64 108 290 39 121
74 227 77 235 4 8 30 85 58 170 30 88 57 154 64 153 7 -2 11 15 11 47 0 28 -1
50 -3 50 -1 0 -74 -212 -161 -470z"/>
<path d="M1692 1349 c-1 -15 -5 -42 -8 -60 -5 -26 -4 -31 5 -23 8 7 11 30 8
60 -2 27 -4 37 -5 23z"/>
<path d="M1557 1207 c-3 -9 -13 -17 -22 -17 -12 0 -13 -4 -6 -19 6 -10 7 -22
3 -26 -4 -5 -1 -5 6 -1 6 4 12 16 12 26 0 10 5 20 12 22 6 2 9 10 6 18 -3 11
-6 10 -11 -3z"/>
<path d="M1688 1166 c-21 -18 -38 -37 -38 -42 -1 -23 -40 -54 -68 -54 -28 0
-98 39 -114 64 -6 8 -8 8 -8 0 0 -7 17 -26 38 -43 20 -17 45 -37 55 -46 9 -8
17 -10 17 -5 0 7 7 7 21 -1 14 -7 19 -17 16 -30 -5 -17 -3 -18 9 -8 8 6 12 19
9 28 -3 10 4 27 15 39 11 11 20 26 20 32 0 19 43 69 54 63 6 -3 8 -3 4 2 -4 4
-3 14 3 22 19 22 6 14 -33 -21z"/>
<path d="M1147 1163 c-12 -11 -8 -40 7 -52 19 -16 30 13 16 40 -12 21 -14 22
-23 12z"/>
<path d="M116 913 c-48 -137 -93 -263 -101 -281 -8 -18 -15 -43 -14 -55 0 -15
5 -9 13 18 8 22 55 157 105 299 50 143 90 261 88 263 -2 2 -43 -108 -91 -244z"/>
<path d="M1721 1102 c-22 -41 -31 -72 -21 -72 6 0 10 7 10 15 0 9 7 27 16 41
9 13 14 27 11 30 -3 3 -10 -3 -16 -14z"/>
<path d="M712 1024 c-9 -9 -9 -14 -2 -14 7 0 10 -6 7 -12 -2 -7 -12 -12 -22
-10 -16 3 -16 1 3 -25 29 -40 85 -92 77 -71 -4 10 -2 32 4 49 9 26 8 30 -6 27
-10 -2 -20 -14 -24 -28 -5 -17 -7 -19 -8 -7 -1 11 -5 15 -13 11 -8 -5 -9 -2
-5 10 4 10 7 20 7 22 0 2 7 4 17 4 14 0 15 2 1 18 -9 9 -17 22 -19 29 -3 8 -8
7 -17 -3z"/>
<path d="M1377 944 c-3 -4 -19 -7 -34 -8 -15 -2 -29 -6 -31 -11 -3 -11 28 -16
48 -8 8 3 30 5 48 4 18 -2 32 2 32 9 0 6 -4 8 -10 5 -5 -3 -18 -1 -28 4 -11 6
-22 8 -25 5z"/>
<path d="M1547 926 c-9 -10 -20 -28 -23 -42 -4 -13 -15 -29 -25 -35 -16 -8
-18 -18 -15 -63 3 -40 0 -60 -15 -82 -20 -31 -24 -44 -11 -44 9 0 52 80 52 95
0 5 8 18 18 29 20 22 48 124 40 146 -3 9 -8 8 -21 -4z"/>
<path d="M792 890 c1 -24 8 -46 20 -57 29 -26 34 -6 9 38 -19 34 -21 43 -10
50 11 7 10 9 -3 9 -14 0 -18 -8 -16 -40z"/>
<path d="M852 848 c6 -18 16 -36 22 -40 11 -7 11 -11 14 -90 2 -57 14 -62 30
-11 9 30 9 40 -3 53 -8 9 -15 29 -15 44 0 15 -11 37 -25 51 -32 33 -36 31 -23
-7z"/>
<path d="M922 790 c1 -13 9 -25 16 -28 17 -5 15 23 -4 39 -14 11 -15 10 -12
-11z"/>
<path d="M1553 778 c-29 -57 -42 -86 -49 -112 l-6 -27 38 25 c22 14 50 33 64
43 13 10 33 21 43 25 10 4 15 12 12 18 -10 16 -22 12 -58 -20 -40 -35 -59 -40
-31 -8 19 21 19 21 0 14 -16 -5 -17 -4 -6 9 9 11 16 12 20 5 4 -7 15 -3 30 10
l23 20 -30 -6 c-24 -5 -32 -2 -35 11 -2 13 -5 12 -15 -7z"/>
<path d="M1577 649 c-26 -18 -45 -34 -43 -36 7 -8 84 39 90 54 7 17 9 18 -47
-18z"/>
<path d="M1545 553 c17 -16 45 -47 63 -67 29 -32 36 -35 49 -24 15 12 14 13
-3 16 -10 2 -35 18 -54 36 -56 50 -91 76 -55 39z"/>
<path d="M1073 555 c-8 -13 -16 -14 -51 -7 -24 6 -42 6 -42 1 0 -5 9 -9 21 -9
16 0 20 -4 15 -17 -5 -16 -5 -16 7 -2 8 11 19 14 33 9 23 -9 40 -1 39 17 0 20
-13 25 -22 8z"/>
<path d="M907 552 c-5 -6 -5 -32 -2 -56 5 -32 12 -46 27 -49 16 -5 17 -3 6 10
-7 8 -15 36 -18 62 -3 28 -8 41 -13 33z"/>
<path d="M1106 505 c-21 -14 -42 -23 -47 -20 -5 4 -9 2 -9 -4 0 -13 39 -35 48
-27 3 3 0 6 -6 6 -7 0 -12 5 -12 10 0 20 31 9 42 -14 14 -31 33 -39 49 -20 10
12 8 19 -10 38 -15 15 -19 26 -12 31 13 7 15 25 2 25 -4 0 -25 -11 -45 -25z"/>
<path d="M1198 427 c-44 -25 -49 -36 -14 -30 24 5 64 39 55 47 -2 2 -21 -6
-41 -17z"/>
<path d="M1246 364 c-18 -38 -18 -48 0 -36 10 6 28 72 21 72 -2 0 -11 -16 -21
-36z"/>
<path d="M958 322 l-3 -39 30 17 c16 9 29 20 28 23 -2 4 -5 6 -7 5 -2 -2 -13
5 -24 15 -19 18 -20 17 -24 -21z"/>
</g>
</svg>
